<svg width="302" height="299" viewBox="0 0 302 299" xmlns="http://www.w3.org/2000/svg"><title>formula-dots</title><g fill="none" fill-rule="evenodd"><path fill="#39FF4A" d="M275 206.972h12.972V194H275zm-100 92h12.972V286H175zm0-35h12.972V251H175zm-175-49h12.972V202H0z"/><path fill="#FFF" d="M139 148.972h12.972V136H139zm24 22h12.972V158H163z"/><path fill="#39FF4A" d="M223 147.972h12.972V135H223z"/><path fill="#FFF" d="M140 170.972h12.972V158H140zm23-32h12.972V126H163zm123-104h12.972V22H286z"/><path fill="#39FF4A" d="M180 64.972h12.972V52H180z"/><path fill="#FFF" d="M289 57.972h12.972V45H289zm-251-45h12.972V0H38zm86 16h12.972V16H124z"/></g></svg>