<svg width="230" height="69" viewBox="0 0 230 69" xmlns="http://www.w3.org/2000/svg" xmlns:xlink="http://www.w3.org/1999/xlink"><title>logo</title><defs><path id="a" d="M0 .331v41.381h41.385V.331z"/></defs><g fill="none" fill-rule="evenodd"><path d="M86.98 30.23c-.083-.222-.139-.444-.25-.64-.446-.751-1.448-1.197-3.23-1.197-.111 0-1.81-.028-2.646.668-.39.307-.445.752-.445.947 0 .223.055.585.445.891.975.78 4.456 1.253 7.964 2.061 2.256.53 3.314 1.114 4.066 1.921.501.501 1.309 1.532 1.309 3.37 0 1.336-.473 2.701-1.31 3.731-1.642 2.061-4.594 3.202-9.968 3.202-4.623 0-7.24-1.086-8.688-2.728-1.337-1.476-1.476-3.008-1.587-3.732l6.934-.167c.055.334.195.863.89 1.364.669.502 1.643.864 3.481.864.724 0 1.615-.056 2.284-.418.584-.278 1.114-.864 1.114-1.559 0-.446-.195-1.03-1.114-1.42-.474-.195-1.643-.418-3.008-.669-1.531-.306-3.09-.556-4.622-.974-1.671-.474-3.202-1.059-4.205-2.59-.724-1.114-.78-2.228-.78-2.73 0-1.057.307-2.032.864-2.895 1.28-2.06 4.01-3.425 9.05-3.425 1.726 0 4.483.223 6.126.78a6.337 6.337 0 0 1 1.921 1.002c1.866 1.365 2.145 3.09 2.283 3.954l-6.877.39zm18.237 6.823h4.567l-2.312-6.655-2.255 6.655zm6.238-12.113l8.52 19.66h-7.657l-1.058-3.203h-7.519l-1.058 3.203h-7.74l8.492-19.66h8.02zm16.008 0l6.043 6.627c.64.725 1.308 1.421 1.893 2.145.557.64 1.086 1.309 1.587 1.977-.055-1.114-.111-2.227-.139-3.537V24.94h6.934V44.6h-5.848l-7.212-8.132a63.494 63.494 0 0 1-2.228-2.7c.056 2.227.084 4.455.112 6.655V44.6h-6.962V24.94h5.82zm37.199 6.516c-.195-.39-.306-.612-.584-.974-1.058-1.365-2.813-1.894-4.456-1.894-.668.028-2.896.14-4.455 1.782-1.086 1.17-1.532 2.813-1.532 4.372 0 2.088.752 3.341 1.28 4.01 1.532 2.005 3.621 2.06 4.512 2.06 2.618 0 4.177-1.308 4.79-2.116.223-.306.362-.529.612-1.17l6.711.697c-.223.724-.751 2.339-2.227 3.843-2.535 2.561-6.628 3.202-10.053 3.202-3.703 0-5.82-.696-7.296-1.392-1.949-.919-5.708-3.342-5.708-9.106 0-1.03.14-3.564 1.782-5.93 1.726-2.48 4.901-4.735 11.445-4.735 5.346 0 8.382 1.392 10.025 3.202 1.086 1.17 1.503 2.479 1.67 3.008l-6.516 1.141zm18.348-2.422c-2.311.974-3.37 3.341-3.37 5.736 0 .362.028 1.364.39 2.394 1.17 3.51 4.344 3.76 5.541 3.76.335 0 1.587 0 2.646-.473 2.2-.975 3.09-3.481 3.09-5.709 0-2.506-1.086-4.065-1.781-4.734-.307-.25-.947-.78-1.894-1.114-.501-.166-1.03-.306-2.089-.306-.918 0-1.67.084-2.534.446m4.762-4.734c5.207.445 7.63 2.478 8.995 4.428.64.946 1.782 2.98 1.782 5.958 0 1.755-.362 5.709-4.344 8.41A10.858 10.858 0 0 1 191 44.6c-1.141.334-2.868.668-5.652.668-4.177 0-6.711-.919-8.298-1.866-.53-.306-1.504-.947-2.479-2.116-2.088-2.534-2.172-5.096-2.172-6.349 0-4.957 2.646-7.435 4.26-8.52 1.671-1.143 4.066-2.145 8.466-2.2.891 0 1.754.027 2.645.083m22.637.64l4.957 12.837 4.956-12.837h9.3V44.6h-6.933V32.013l-4.65 12.587h-5.43l-4.623-12.531v12.53h-6.906V24.94z" fill="#1F1F1F"/><g transform="translate(0 27.315)"><mask id="b" fill="#fff"><use xlink:href="#a"/></mask><path fill="#6000FF" mask="url(#b)" d="M41.385 14.111L13.78 41.712 0 27.932 27.604.331z"/></g><path fill="#39E74A" d="M41.47 13.78L13.865 41.383.086 27.603 27.688 0z"/></g></svg>