<svg width="50" height="44" viewBox="0 0 50 44" xmlns="http://www.w3.org/2000/svg" xmlns:xlink="http://www.w3.org/1999/xlink"><title>skype@2x</title><defs><path id="a" d="M24.923 43.514h24.923V0H0v43.514z"/></defs><g fill="none" fill-rule="evenodd"><mask id="b" fill="#fff"><use xlink:href="#a"/></mask><path d="M25.72 17.857c4.386 1.043 11.016 2.62 11.016 9.921 0 3.598-1.772 6.342-4.989 7.727-2.295.989-4.893 1.122-7.132 1.122-6.88 0-11.225-5.35-11.406-5.577a3.272 3.272 0 0 1 5.117-4.08c.01.011 2.608 2.995 6.289 3.112 4.432.14 5.445-1.178 5.576-2.304.16-1.374-1.063-2.384-5.986-3.554-4.173-.993-10.48-2.492-10.48-9.217 0-2.095.853-8.928 11.813-8.928 6.921 0 11.006 5.45 11.177 5.681a3.272 3.272 0 0 1-5.258 3.897c-.077-.099-2.416-2.7-5.919-3.033-2.65-.252-5.267.704-5.267 2.116 0 1.496.751 2 5.448 3.117zm22.115 7.7c-.79-1.092-1.157-2.427-1.155-3.776v-.024C46.68 9.741 36.939 0 24.923 0a21.69 21.69 0 0 0-7.48 1.323c-1.261.463-2.644.552-3.937.187a10.65 10.65 0 0 0-3.628-.37C4.566 1.505.29 5.858.015 11.176a10.579 10.579 0 0 0 1.995 6.78c.791 1.093 1.158 2.428 1.156 3.777v.024c0 12.016 9.74 21.757 21.757 21.757a21.69 21.69 0 0 0 7.48-1.323c1.261-.463 2.644-.552 3.937-.187a10.65 10.65 0 0 0 3.628.37c5.312-.365 9.588-4.718 9.863-10.035a10.58 10.58 0 0 0-1.996-6.781z" fill="#FFF" mask="url(#b)"/></g></svg>