<svg width="53" height="45" viewBox="0 0 53 45" xmlns="http://www.w3.org/2000/svg"><title>telegram@2x</title><path d="M49.29.173L1.265 18.887c-1.556.607-1.462 2.839.14 3.311l12.203 3.603 4.555 14.452c.475 1.51 2.388 1.967 3.495.837l6.31-6.443 12.38 9.087c1.514 1.112 3.672.286 4.057-1.553l8.199-39.2c.401-1.921-1.488-3.52-3.316-2.808zm-6.022 8.7L20.962 28.597a1.196 1.196 0 0 0-.397.764l-.859 7.634c-.028.25-.377.283-.45.043L15.72 25.653a1.2 1.2 0 0 1 .514-1.373L42.577 7.942c.605-.376 1.225.458.691.93z" fill="#FFF" fill-rule="evenodd"/></svg>