<svg width="125" height="31" viewBox="0 0 125 31" xmlns="http://www.w3.org/2000/svg"><title>viber@2x</title><g fill="#FFF"><path d="M23.13 30.094c2.239 0 4.85-2.114 5.596-4.228.746-1.99-.746-2.86-1.99-3.855-.87-.746-1.865-1.368-2.735-1.99-1.866-1.368-3.607-1.368-4.974.746-.747 1.244-1.866 1.244-2.985.746-3.109-1.492-5.596-3.606-7.088-6.84-.622-1.367-.622-2.735.87-3.73.746-.497 1.617-1.119 1.493-2.363-.125-1.492-3.731-6.59-5.223-7.088a2.425 2.425 0 0 0-1.866 0C.871 2.612-.622 5.472.746 8.705c3.98 9.948 11.192 16.788 20.892 21.016.622.248 1.244.248 1.492.373zM15.918.87C15.42.995 14.3.497 14.3 1.617c0 .746.87.621 1.492.746 7.09 1.119 10.448 4.476 11.318 11.689.124.622-.125 1.617.746 1.741.995 0 .746-.995.746-1.617C28.726 7.336 22.757 1.12 15.918.87zm51.607 14.674V4.974c0-2.114.747-3.855 3.109-3.855 2.238 0 2.86 1.617 2.86 3.73v1.369c0 3.233 0 3.233 2.984 2.362 4.104-1.243 8.083.373 10.073 4.104 2.363 4.477 2.613 8.954 0 13.43-2.612 4.477-7.586 5.845-12.061 3.11-.748-.498-.996-.747-1.618.124-.87 1.243-2.238 1.367-3.606.746-1.37-.622-1.741-1.866-1.741-3.358V15.544zM82.323 19.4c0-3.357-1.866-5.844-4.353-5.969-2.611-.124-4.6 2.239-4.6 5.596 0 3.235 1.865 5.845 4.352 5.97 2.611.248 4.6-2.24 4.6-5.597zm-37.182.125a833.322 833.322 0 0 0 5.223-14.052c.248-.747.497-1.493.87-2.239.746-1.74 1.99-2.736 3.98-1.99 2.114.747 2.362 2.363 1.74 4.353-1.99 5.223-4.103 10.446-6.093 15.793a365.671 365.671 0 0 1-2.611 6.59c-.498 1.244-1.368 2.24-2.86 2.363-1.741 0-2.612-.996-3.11-2.487-2.86-7.337-5.844-14.798-8.704-22.135-.746-1.99-.373-3.73 1.865-4.476 2.239-.747 3.233.621 3.98 2.487 1.74 4.974 3.606 9.948 5.72 15.793zm56.954 1.74h-5.347c-1.368 0-1.492.622-.87 1.617 1.119 2.114 4.352 2.985 7.088 1.99.994-.373 1.865-.87 2.86-1.368 1.369-.747 2.612-.622 3.483.746.995 1.492.373 2.736-.87 3.606-3.981 2.736-8.334 3.607-12.81 1.741C91.276 27.731 89.41 24 89.41 19.4c-.124-5.969 3.98-10.694 9.327-11.316 5.47-.497 10.32 3.233 11.316 8.83.622 3.108-.249 4.227-3.482 4.352h-4.477zm-2.611-3.979c.497 0 1.119.125 1.616 0 .995-.124 2.487.622 2.736-.497.373-1.492-.87-2.612-2.114-3.233-1.74-.87-3.358-.747-4.849.621-.747.746-1.617 1.617-1.243 2.736.373.995 1.49.373 2.361.498.498 0 .995-.125 1.493-.125z"/><path d="M23.13 30.094c-.373-.126-.87-.126-1.492-.373C11.814 25.493 4.726 18.653.746 8.705-.62 5.347.746 2.61 4.228 1.492a2.425 2.425 0 0 1 1.866 0c1.492.498 5.098 5.596 5.223 7.088.124 1.12-.747 1.741-1.493 2.363-1.492.995-1.492 2.239-.87 3.73 1.492 3.234 3.855 5.472 7.088 6.84 1.12.498 2.238.498 2.985-.746 1.367-2.114 3.108-1.99 4.974-.746a21.99 21.99 0 0 1 2.735 1.99c1.244.995 2.736 1.74 1.99 3.855-.746 2.115-3.357 4.228-5.596 4.228zm88.913-11.068v-7.461c0-1.368.498-2.363 1.741-2.985 1.368-.621 2.736-.497 3.607.622.746 1.12 1.118.622 1.74 0 .87-.746 1.99-1.119 3.234-.995 1.368.25 2.238.995 2.487 2.363.247 1.368-.249 2.487-1.37 2.736-5.098 1.243-5.844 4.725-5.346 9.2.124 1.619.124 3.235-.125 4.728-.249 1.865-1.369 2.983-3.234 2.86-1.74-.126-2.612-1.37-2.736-3.11.002-2.486.002-5.222.002-7.958zm-52.974.995v-7.088c0-1.99.87-3.233 2.984-3.233 1.99 0 2.86 1.243 2.86 3.108V27.11c0 1.991-.995 3.235-2.984 3.235-1.99-.126-2.86-1.37-2.86-3.358v-6.965zM15.918.871c6.84.248 12.808 6.466 12.684 13.305 0 .622.249 1.617-.746 1.617s-.746-.995-.746-1.741c-.87-7.213-4.228-10.57-11.317-11.69-.621-.124-1.492 0-1.492-.745.124-1.12 1.12-.622 1.617-.747zM65.41 4.476c-.248 1.865-1.118 3.109-3.11 3.233-1.865.124-3.357-1.368-3.357-3.233 0-1.866 1.617-3.482 3.358-3.358 1.74.249 2.86 1.368 3.109 3.358z"/><path d="M25.12 12.933c-.124.497.249 1.368-.622 1.492-1.12.124-.87-.87-.995-1.492-.746-4.353-2.238-5.97-6.715-6.964-.622-.124-1.616 0-1.492-.995.124-.995 1.12-.622 1.74-.497 4.478.497 8.084 4.228 8.084 8.456z"/><path d="M21.762 12.187c0 .497 0 1.119-.746 1.243-.497 0-.746-.373-.87-.87-.125-1.866-1.12-2.86-2.985-3.11-.497-.123-1.119-.248-.87-.994.124-.497.622-.497 1.119-.497 2.114-.125 4.352 2.114 4.352 4.228z"/></g></svg>