<svg width="44" height="45" viewBox="0 0 44 45" xmlns="http://www.w3.org/2000/svg"><title>whatup@2x</title><g fill="#FFF" fill-rule="evenodd"><path d="M34.207 34.172a17.063 17.063 0 0 1-12.145 5.03 17 17 0 0 1-7.644-1.79l-1.543-.77-6.791 1.61 1.43-6.94-.76-1.488a16.984 16.984 0 0 1-1.867-7.797c0-4.588 1.786-8.9 5.03-12.145a17.206 17.206 0 0 1 12.146-5.03c4.587 0 8.9 1.786 12.144 5.03a17.063 17.063 0 0 1 5.031 12.145c0 4.547-1.816 8.93-5.03 12.145zM20.99.117C9.31.673.09 10.401.127 22.095a21.84 21.84 0 0 0 2.387 9.894L.186 43.293a.854.854 0 0 0 1.033 1.003l11.077-2.624a21.832 21.832 0 0 0 9.425 2.288c11.939.182 21.894-9.297 22.266-21.232C44.386 9.936 33.827-.494 20.99.118z"/><path d="M32.708 26.784l-4.249-1.22a1.584 1.584 0 0 0-1.567.413l-1.04 1.059a1.548 1.548 0 0 1-1.682.355c-2.01-.814-6.238-4.573-7.318-6.453a1.548 1.548 0 0 1 .123-1.716l.907-1.173c.355-.46.43-1.078.195-1.61l-1.787-4.042a1.585 1.585 0 0 0-2.474-.567c-1.186 1.003-2.593 2.527-2.764 4.216-.302 2.977.975 6.73 5.803 11.235 5.577 5.206 10.044 5.894 12.952 5.19 1.65-.4 2.968-2.002 3.8-3.313a1.585 1.585 0 0 0-.899-2.374"/></g></svg>