<?xml version="1.0" encoding="UTF-8"?>
<svg width="302px" height="299px" viewBox="0 0 302 299" version="1.1" xmlns="http://www.w3.org/2000/svg" xmlns:xlink="http://www.w3.org/1999/xlink">
    <!-- Generator: Sketch 45 (43475) - http://www.bohemiancoding.com/sketch -->
    <title>formula-dots</title>
    <desc>Created with Sketch.</desc>
    <defs></defs>
    <g id="Page-1" stroke="none" stroke-width="1" fill="none" fill-rule="evenodd">
        <g id="cases" transform="translate(-922.000000, -807.000000)">
            <g id="formula-dots" transform="translate(922.000000, 807.000000)">
                <polygon id="Stroke-6" fill="#39FF4A" points="275 206.971596 287.971596 206.971596 287.971596 194 275 194"></polygon>
                <polygon id="Fill-7" fill="#39FF4A" points="175 298.971596 187.971596 298.971596 187.971596 286 175 286"></polygon>
                <polygon id="Stroke-8" fill="#39FF4A" points="175 263.971596 187.971596 263.971596 187.971596 251 175 251"></polygon>
                <polygon id="Fill-9" fill="#39FF4A" points="0 214.971596 12.9715958 214.971596 12.9715958 202 0 202"></polygon>
                <polygon id="Stroke-15" fill="#FFFFFF" points="139 148.971596 151.971596 148.971596 151.971596 136 139 136"></polygon>
                <polygon id="Stroke-17" fill="#FFFFFF" points="163 170.971596 175.971596 170.971596 175.971596 158 163 158"></polygon>
                <polygon id="Fill-19" fill="#39FF4A" points="223 147.971596 235.971596 147.971596 235.971596 135 223 135"></polygon>
                <polygon id="Stroke-20" fill="#FFFFFF" points="140 170.971596 152.971596 170.971596 152.971596 158 140 158"></polygon>
                <polygon id="Stroke-23" fill="#FFFFFF" points="163 138.971596 175.971596 138.971596 175.971596 126 163 126"></polygon>
                <polygon id="Stroke-27" fill="#FFFFFF" points="286 34.9715958 298.971596 34.9715958 298.971596 22 286 22"></polygon>
                <polygon id="Fill-30" fill="#39FF4A" points="180 64.9715958 192.971596 64.9715958 192.971596 52 180 52"></polygon>
                <polygon id="Stroke-31" fill="#FFFFFF" points="289 57.9715958 301.971596 57.9715958 301.971596 45 289 45"></polygon>
                <polygon id="Stroke-25" fill="#FFFFFF" points="38 12.9715958 50.9715958 12.9715958 50.9715958 0 38 0"></polygon>
                <polygon id="Stroke-33" fill="#FFFFFF" points="124 28.9715958 136.971596 28.9715958 136.971596 16 124 16"></polygon>
            </g>
        </g>
    </g>
</svg>